<?xml version="1.0" ?><svg id="Layer_1" style="enable-background:new 0 0 512 512;" version="1.1" viewBox="0 0 512 512" xml:space="preserve" xmlns="http://www.w3.org/2000/svg" xmlns:xlink="http://www.w3.org/1999/xlink"><style type="text/css">
	.st0{opacity:0.33;}
	.st1{fill:#96D7FF;}
	.st2{fill:#FFFFFF;}
	.st3{fill:#2866AE;}
	.st4{fill:#64B4DD;}
	.st5{fill:#CDECFC;}
</style><g class="st0"><path class="st1" d="M504.7,194.7c-7.3-49.7-44.8-89.6-94.1-100c-17-3.6-32.4-12.8-43.6-26.2   c-36.1-42.6-93.1-61.3-147.4-48.4C165.3,33.1,123,75.5,110,129.9c-5.9,23.7-21.7,43.6-43.5,54.7C9.8,214-18.5,290.4,33.1,362.1   c6.8,8.5,15.5,15.3,25.4,19.6c18.2,9.1,32.5,24.6,40,43.5c13.1,32,40,56.3,73.1,66.1c33.1,9.8,69,4.1,97.4-15.6   c19.4-13.6,43.7-17.8,66.6-11.7c38.8,10.6,80.3,0.2,109.7-27.4c29.3-27.5,42.3-68.3,34.3-107.7c-3.7-19.4-0.1-39.6,10-56.5   C503.3,249,508.7,221.6,504.7,194.7L504.7,194.7z" id="Shape"/><g><path class="st2" d="M460.2,279c-2.1-0.9-4.6-0.4-6.2,1.2c-1,1.1-1.6,2.5-1.6,4c0,0.7,0.1,1.5,0.4,2.1c0.3,0.8,0.7,1.3,1.2,1.9    c0.5,0.5,1.2,0.9,1.9,1.2c0.7,0.3,1.4,0.5,2.1,0.5l0,0c1.5,0,3-0.6,4-1.6c0.5-0.5,0.8-1.2,1.2-1.8c0.3-0.7,0.4-1.4,0.4-2.1    C463.7,281.9,462.3,279.8,460.2,279z"/><path class="st2" d="M446.7,301.2h-33.9c-3.1,0-5.7,2.5-5.7,5.7c0,3.1,2.5,5.6,5.7,5.6h33.9c3.1,0,5.7-2.6,5.7-5.6    C452.4,303.7,449.9,301.2,446.7,301.2z"/><path class="st2" d="M395.8,289.9h39.6c3.1,0,5.7-2.5,5.7-5.6s-2.5-5.7-5.7-5.7h-39.6c-3.1,0-5.6,2.6-5.6,5.7    C390.2,287.3,392.7,289.9,395.8,289.9z"/><path class="st2" d="M395.8,306.8c0-3.1-2.6-5.7-5.6-5.7h-11.3c-3.1,0-5.7,2.5-5.7,5.7c0,3.1,2.5,5.6,5.7,5.6h11.3    C393.3,312.5,395.8,309.9,395.8,306.8z"/><path class="st2" d="M435.4,323.8h-45.3c-3.1,0-5.7,2.5-5.7,5.7c0,3.1,2.5,5.6,5.7,5.6h45.3c3.1,0,5.7-2.6,5.7-5.6    C441.1,326.3,438.6,323.8,435.4,323.8z"/></g><g><path class="st2" d="M94,272.8c-0.6,0.3-1.2,0.7-1.7,1.2c-0.6,0.5-1,1.1-1.2,1.8c-0.6,1.3-0.6,2.8,0,4.1c0.3,0.6,0.7,1.3,1.2,1.7    c1,1.1,2.3,1.7,3.8,1.7v0.1c0.7,0,1.4-0.2,2.1-0.5c0.6-0.3,1.3-0.7,1.7-1.2c0.5-0.5,0.9-1,1.2-1.8c0.2-0.7,0.4-1.3,0.4-2.1    c0-1.4-0.6-2.8-1.6-3.9C98.4,272.5,96,272,94,272.8z"/><path class="st2" d="M101.6,250.6h-11c-3,0-5.5,2.4-5.5,5.5c0,3,2.5,5.4,5.4,5.4h11l0,0c3,0,5.4-2.5,5.4-5.4    C107,253,104.6,250.6,101.6,250.6z"/><path class="st2" d="M117.9,228.7H63.3c-3,0-5.5,2.5-5.5,5.5s2.4,5.4,5.5,5.4h54.6c3,0,5.5-2.4,5.5-5.4    C123.4,231.2,120.9,228.7,117.9,228.7z"/><path class="st2" d="M46.9,261.5h21.8c3,0,5.5-2.5,5.5-5.4c0-3-2.4-5.5-5.5-5.5H46.9c-3,0-5.4,2.4-5.4,5.5    C41.5,259,44,261.5,46.9,261.5z"/><path class="st2" d="M74.3,272.4H30.6c-3,0-5.5,2.4-5.5,5.5c0,3,2.4,5.5,5.5,5.5h43.7c3,0,5.4-2.4,5.4-5.5    C79.7,274.8,77.2,272.4,74.3,272.4z"/></g></g><g><path class="st1" d="M329.1,250.4h-52v183.5h-64.9V250.4h-36.3v-53.5h36.3v-47.6c0-16.7,5.1-71.3,71.3-71.3l50.8,0.2v51.6H299   c-10.1,0-21.8,6.1-21.8,23.3v43.8h57.5L329.1,250.4z"/><path class="st3" d="M288.5,185.6v-32.4c0-8,3.5-12,10.5-12h46.7V66.9l-62.1-0.2c-60.9,0-82.6,42.7-82.6,82.6v36.3h-36.3v76.2H201   v183.5h87.6V261.8h50.9l7.8-76.2L288.5,185.6L288.5,185.6z M329.1,250.4h-52v183.5h-64.9V250.4h-36.3v-53.5h36.3v-47.6   c0-16.7,5.1-71.3,71.3-71.3l50.8,0.2v51.6H299c-10.1,0-21.8,6.1-21.8,23.3v43.8h57.5L329.1,250.4z"/><g><path class="st4" d="M299,129.8h35.3v-14.3l-55,0.2c-11.2,0-20.2,9.1-20.2,20.3v79.3h73.7l1.9-18.4h-57.5v-43.8    C277.2,135.9,288.9,129.8,299,129.8z"/><rect class="st4" height="151.1" width="21.8" x="255.3" y="282.8"/></g><path class="st5" d="M225.3,433.9V104c-11.6,16.5-13.1,36.4-13.1,45.3v47.6h-36.3v53.5h36.3v183.5H225.3z"/></g></svg>