<?xml version="1.0" encoding="iso-8859-1"?>
<!-- Generator: Adobe Illustrator 21.1.0, SVG Export Plug-In . SVG Version: 6.00 Build 0)  -->
<svg version="1.1" id="Layer_1" xmlns="http://www.w3.org/2000/svg" xmlns:xlink="http://www.w3.org/1999/xlink" x="0px" y="0px"
	 viewBox="0 0 24 24" enable-background="new 0 0 24 24" xml:space="preserve">
<g>
	<path fill="#303C42" d="M16,0c-4.4111328,0-8,3.5888672-8,8c0,0.5253906,0.0571289,1.0644531,0.1699219,1.605957
		l-0.8935547,0.4467773c-0.1435547,0.0717773-0.2441406,0.2084961-0.2700195,0.3671875s0.0263672,0.3198242,0.1401367,0.4335938
		L7.7929688,11.5l-0.5,0.5H6.5C6.2236328,12,6,12.2236328,6,12.5v0.7929688L5.2929688,14H4.5C4.2236328,14,4,14.2236328,4,14.5
		v0.7929688L3.2929688,16H2.5C2.2236328,16,2,16.2236328,2,16.5v0.7929688l-1.8535156,1.8535156
		C0.0527344,19.2402344,0,19.3671875,0,19.5v4C0,23.7763672,0.2236328,24,0.5,24h4
		c0.1328125,0,0.2597656-0.0527344,0.3535156-0.1464844L12.5,16.2070313l0.6464844,0.6464844
		c0.1132813,0.1137695,0.2749023,0.1669922,0.4335938,0.1401367c0.1586914-0.0258789,0.2954102-0.1264648,0.3671875-0.2700195
		l0.4467773-0.8935547C19.4814453,16.890625,24,12.9365234,24,8C24,3.5888672,20.4111328,0,16,0z M18.5,7
		C17.6728516,7,17,6.3271484,17,5.5S17.6728516,4,18.5,4S20,4.6728516,20,5.5S19.3271484,7,18.5,7z"/>
	<path fill="#FFCB29" d="M16,1c-3.8598633,0-7,3.1401367-7,7c0,0.5693359,0.0776367,1.1586914,0.2304688,1.7524414
		c0.0585938,0.2280273-0.0498047,0.4663086-0.2607422,0.5717773L8.3442383,10.637207l0.5092773,0.5092773
		c0.1953125,0.1953125,0.1953125,0.5117188,0,0.7070313l-1,1C7.7597656,12.9472656,7.6328125,13,7.5,13H7v0.5
		c0,0.1328125-0.0527344,0.2597656-0.1464844,0.3535156l-1,1C5.7597656,14.9472656,5.6328125,15,5.5,15H5v0.5
		c0,0.1328125-0.0527344,0.2597656-0.1464844,0.3535156l-1,1C3.7597656,16.9472656,3.6328125,17,3.5,17H3v0.5
		c0,0.1328125-0.0527344,0.2597656-0.1464844,0.3535156L1,19.7070313V23h3.2929688l7.8535156-7.8535156
		c0.1953125-0.1953125,0.5117188-0.1953125,0.7070313,0l0.5092773,0.5092773l0.3129883-0.6254883
		c0.1054688-0.2109375,0.3452148-0.3183594,0.5717773-0.2607422C18.8666992,15.9589844,23,12.4291992,23,8
		C23,4.1401367,19.8598633,1,16,1z M18.5,8C17.121582,8,16,6.878418,16,5.5S17.121582,3,18.5,3S21,4.121582,21,5.5
		S19.878418,8,18.5,8z"/>
	<path opacity="0.1" fill="#010101" d="M22.3560181,5.085022C22.4502563,5.5421753,22.5,6.0153809,22.5,6.5
		c0,4.4291992-4.1333008,7.9589844-8.7524414,6.7695313c-0.2265625-0.0576172-0.4663086,0.0498047-0.5717773,0.2607422
		l-0.3129883,0.6254883l-0.5092773-0.5092773c-0.1953125-0.1953125-0.5117188-0.1953125-0.7070313,0L3.7929688,21.5H1V23h3.2929688
		l7.8535156-7.8535156c0.1953125-0.1953125,0.5117188-0.1953125,0.7070313,0l0.5092773,0.5092773l0.3129883-0.6254883
		c0.1054688-0.2109375,0.3452148-0.3183594,0.5717773-0.2607422C18.8666992,15.9589844,23,12.4291992,23,8
		C23,6.9589844,22.7653809,5.973877,22.3560181,5.085022z"/>
	<linearGradient id="SVGID_1_" gradientUnits="userSpaceOnUse" x1="4.452064" y1="9.8416815" x2="20.4818573" y2="17.3164959">
		<stop  offset="0" style="stop-color:#FFFFFF;stop-opacity:0.2"/>
		<stop  offset="1" style="stop-color:#FFFFFF;stop-opacity:0"/>
	</linearGradient>
	<path fill="url(#SVGID_1_)" d="M16,0c-4.4111328,0-8,3.5888672-8,8c0,0.5253906,0.0571289,1.0644531,0.1699219,1.605957
		l-0.8935547,0.4467773c-0.1435547,0.0717773-0.2441406,0.2084961-0.2700195,0.3671875s0.0263672,0.3198242,0.1401367,0.4335938
		L7.7929688,11.5l-0.5,0.5H6.5C6.2236328,12,6,12.2236328,6,12.5v0.7929688L5.2929688,14H4.5C4.2236328,14,4,14.2236328,4,14.5
		v0.7929688L3.2929688,16H2.5C2.2236328,16,2,16.2236328,2,16.5v0.7929688l-1.8535156,1.8535156
		C0.0527344,19.2402344,0,19.3671875,0,19.5v4C0,23.7763672,0.2236328,24,0.5,24h4
		c0.1328125,0,0.2597656-0.0527344,0.3535156-0.1464844L12.5,16.2070313l0.6464844,0.6464844
		c0.1132813,0.1137695,0.2749023,0.1669922,0.4335938,0.1401367c0.1586914-0.0258789,0.2954102-0.1264648,0.3671875-0.2700195
		l0.4467773-0.8935547C19.4814453,16.890625,24,12.9365234,24,8C24,3.5888672,20.4111328,0,16,0z M18.5,7
		C17.6728516,7,17,6.3271484,17,5.5S17.6728516,4,18.5,4S20,4.6728516,20,5.5S19.3271484,7,18.5,7z"/>
</g>
<g>
</g>
<g>
</g>
<g>
</g>
<g>
</g>
<g>
</g>
<g>
</g>
<g>
</g>
<g>
</g>
<g>
</g>
<g>
</g>
<g>
</g>
<g>
</g>
<g>
</g>
<g>
</g>
<g>
</g>
</svg>
