<?xml version="1.0" ?><svg id="Layer_1" style="enable-background:new 0 0 512 512;" version="1.1" viewBox="0 0 512 512" xml:space="preserve" xmlns="http://www.w3.org/2000/svg" xmlns:xlink="http://www.w3.org/1999/xlink"><style type="text/css">
	.st0{opacity:0.33;}
	.st1{fill:#96D7FF;}
	.st2{fill:#FFFFFF;}
	.st3{fill:#C6E7F7;}
	.st4{fill:#66B5DD;}
	.st5{fill:#2866AE;}
</style><g class="st0"><path class="st1" d="M504.7,194.7c-7.3-49.7-44.8-89.6-94.1-100c-17-3.6-32.4-12.8-43.6-26.2   C330.9,25.8,273.9,7.1,219.6,20C165.3,33,123,75.4,110,129.9c-5.9,23.7-21.7,43.6-43.5,54.7C9.8,214-18.5,290.4,33.1,362.1   c6.8,8.5,15.5,15.3,25.4,19.6c18.2,9.1,32.5,24.6,40,43.5c13.1,32,40,56.3,73.1,66.1c33.1,9.8,69,4.1,97.4-15.6   c19.4-13.6,43.7-17.8,66.6-11.7c38.8,10.6,80.3,0.2,109.7-27.4c29.3-27.5,42.3-68.3,34.3-107.7c-3.7-19.4-0.1-39.6,10-56.5   C503.3,249,508.7,221.6,504.7,194.7L504.7,194.7z" id="Shape"/><g><path class="st2" d="M460.2,279c-2.1-0.9-4.6-0.4-6.2,1.2c-1,1.1-1.6,2.5-1.6,4c0,0.7,0.1,1.5,0.4,2.1c0.3,0.8,0.7,1.3,1.2,1.9    c0.5,0.5,1.2,0.9,1.9,1.2c0.7,0.3,1.4,0.5,2.1,0.5l0,0c1.5,0,3-0.6,4-1.6c0.5-0.5,0.8-1.2,1.2-1.8c0.3-0.7,0.4-1.4,0.4-2.1    C463.7,281.9,462.3,279.8,460.2,279z"/><path class="st2" d="M446.7,301.2h-33.9c-3.1,0-5.7,2.5-5.7,5.7c0,3.1,2.5,5.6,5.7,5.6h33.9c3.1,0,5.7-2.6,5.7-5.6    C452.4,303.7,449.9,301.2,446.7,301.2z"/><path class="st2" d="M395.8,289.9h39.6c3.1,0,5.7-2.5,5.7-5.6s-2.5-5.7-5.7-5.7h-39.6c-3.1,0-5.6,2.6-5.6,5.7    C390.2,287.3,392.7,289.9,395.8,289.9z"/><path class="st2" d="M395.8,306.8c0-3.1-2.6-5.7-5.6-5.7h-11.3c-3.1,0-5.7,2.5-5.7,5.7c0,3.1,2.5,5.6,5.7,5.6h11.3    C393.3,312.5,395.8,309.9,395.8,306.8z"/><path class="st2" d="M435.4,323.8h-45.3c-3.1,0-5.7,2.5-5.7,5.7c0,3.1,2.5,5.6,5.7,5.6h45.3c3.1,0,5.7-2.6,5.7-5.6    C441.1,326.3,438.6,323.8,435.4,323.8z"/></g><g><path class="st2" d="M94,272.8c-0.6,0.3-1.2,0.7-1.7,1.2c-0.6,0.5-1,1.1-1.2,1.8c-0.6,1.3-0.6,2.8,0,4.1c0.3,0.6,0.7,1.3,1.2,1.7    c1,1.1,2.3,1.7,3.8,1.7v0.1c0.7,0,1.4-0.2,2.1-0.5c0.6-0.3,1.3-0.7,1.7-1.2c0.5-0.5,0.9-1,1.2-1.8c0.2-0.7,0.4-1.3,0.4-2.1    c0-1.4-0.6-2.8-1.6-3.9C98.4,272.5,96,272,94,272.8z"/><path class="st2" d="M101.6,250.6h-11c-3,0-5.5,2.4-5.5,5.5c0,3,2.5,5.4,5.4,5.4h11l0,0c3,0,5.4-2.5,5.4-5.4    C107,253,104.6,250.6,101.6,250.6z"/><path class="st2" d="M117.9,228.7H63.3c-3,0-5.5,2.5-5.5,5.5s2.4,5.4,5.5,5.4h54.6c3,0,5.5-2.4,5.5-5.4    C123.4,231.2,120.9,228.7,117.9,228.7z"/><path class="st2" d="M46.9,261.5h21.8c3,0,5.5-2.5,5.5-5.4c0-3-2.4-5.5-5.5-5.5H46.9c-3,0-5.4,2.4-5.4,5.5    C41.5,259,44,261.5,46.9,261.5z"/><path class="st2" d="M74.3,272.4H30.6c-3,0-5.5,2.4-5.5,5.5c0,3,2.4,5.5,5.5,5.5h43.7c3,0,5.4-2.4,5.4-5.5    C79.7,274.8,77.2,272.4,74.3,272.4z"/></g></g><g><path class="st1" d="M415.7,157c-11.7,5.3-24.4,8.7-37.6,10.3c13.5-8.1,24-21,28.8-36.2c-12.7,7.5-26.7,13-41.6,15.9   c-11.9-12.8-29-20.7-47.8-20.7c-36.2,0-65.6,29.3-65.6,65.6c0,5.2,0.5,10.1,1.7,14.9c-54.5-2.7-102.7-28.8-135.1-68.5   c-5.6,9.7-8.9,21-8.9,33c0,22.8,11.6,42.8,29.1,54.6c-10.7-0.3-20.8-3.3-29.7-8.2c0,0.3,0,0.5,0,0.9c0,31.7,22.6,58.2,52.6,64.3   c-5.5,1.5-11.3,2.3-17.3,2.3c-4.2,0-8.4-0.4-12.4-1.2c8.4,26,32.6,45,61.3,45.5c-22.5,17.6-50.7,28-81.4,28c-5.3,0-10.5-0.3-15.6-1   c29,18.6,63.4,29.4,100.5,29.4c120.6,0,186.5-99.8,186.5-186.5c0-2.8-0.1-5.7-0.2-8.5C395.7,181.6,406.9,170.1,415.7,157z"/><path class="st3" d="M206.3,302.7l0.4-3.6c-14.4,5-26.4,1.2-33.4-2.3c11-5.1,13.4-16.7,13.4-16.7c-25-5-41-34-41-34c15,8,38,0,38,0   c-20-9-20-35-20-35c15,19,50,13.1,50,13.1L189.6,192c-27.8-12-52.2-30.5-71.1-53.7c-5.6,9.7-8.9,21-8.9,33   c0,22.8,11.6,42.8,29.1,54.6c-10.7-0.3-20.8-3.3-29.7-8.2c0,0.3,0,0.5,0,0.9c0,31.7,22.6,58.2,52.6,64.3   c-5.5,1.5-11.3,2.3-17.3,2.3c-4.2,0-8.4-0.4-12.4-1.2c7.9,24.4,29.6,42.6,56,45.2l10.1-2.3C199.7,322.9,204.8,310.5,206.3,302.7z"/><path class="st4" d="M152.2,380.5c14.3,3.5,29.2,5.4,44.6,5.4c100.2,0,162.7-69,180.9-142C323.8,305,216.3,354.7,152.2,380.5z"/><path class="st5" d="M196.8,390.4c-36.5,0-72.1-10.4-102.9-30.2c-1.8-1.1-2.5-3.3-1.8-5.3c0.7-2,2.7-3.2,4.8-2.9   c4.8,0.6,9.9,0.9,15,0.9c24.9,0,48.6-7,69.1-20.3c-24.7-4.8-45.3-22.7-53.3-47.3c-0.5-1.5-0.1-3.2,0.9-4.4c1-1.2,2.7-1.7,4.2-1.4   c3.1,0.6,6.1,0.9,9.1,1.1c-22.5-11.9-37.4-35.5-37.4-62v-0.9c0-1.6,0.8-3.1,2.2-3.9c1.4-0.8,3.1-0.8,4.5-0.1   c4,2.2,8.2,3.9,12.6,5.2c-11.9-12.9-18.7-29.8-18.7-47.7c0-12.3,3.3-24.5,9.5-35.2c0.7-1.3,2.1-2.1,3.5-2.2   c1.5-0.1,2.9,0.5,3.8,1.6c31.4,38.4,77,62.4,126.1,66.4c-0.5-3.2-0.7-6.6-0.7-10.1c0-38.6,31.4-70.1,70.1-70.1   c18.5,0,36.3,7.4,49.3,20.3c13.2-2.8,25.9-7.8,37.8-14.9c1.6-1,3.6-0.8,5.1,0.3c1.5,1.2,2.1,3.1,1.5,4.9   c-3.2,10.2-8.8,19.4-16.1,27c6.5-1.7,12.8-3.9,18.8-6.6c1.8-0.8,4-0.3,5.3,1.2c1.3,1.5,1.4,3.7,0.3,5.4   c-8.6,12.8-19.3,24.1-31.8,33.6c0.1,2,0.1,4.2,0.1,6.3c0,46.4-17.9,93.3-49.1,128.7C313.6,356.6,268.6,390.4,196.8,390.4z    M114.9,361.9c25.3,12.8,53.3,19.5,81.9,19.5c113.9,0,182-92.5,182-182c0-2.8-0.1-5.9-0.2-8.3c-0.1-1.5,0.6-2.9,1.8-3.8   c8.3-6.1,15.8-13,22.3-20.6c-7.7,2.4-15.7,4.1-24,5.1c-2.1,0.3-4.1-1-4.8-3c-0.7-2,0.1-4.2,2-5.3c9.2-5.5,16.7-13.2,21.9-22.4   c-10.1,4.8-20.6,8.2-31.5,10.3c-1.5,0.3-3.1-0.2-4.1-1.3c-11.4-12.3-27.7-19.3-44.5-19.3c-33.7,0-61.1,27.4-61.1,61.1   c0,5,0.5,9.5,1.6,13.9c0.3,1.4,0,2.8-0.9,3.9c-0.9,1.1-2.3,1.7-3.7,1.6c-51.5-2.5-99.9-26.1-133.9-64.9c-3.5,7.9-5.3,16.4-5.3,24.9   c0,20.4,10.1,39.4,27.1,50.9c1.7,1.1,2.4,3.2,1.8,5.1c-0.6,1.9-2.4,3.2-4.4,3.1c-8.4-0.3-16.8-2.1-24.7-5.4   c2.8,26.2,22.4,48.1,48.6,53.4c2,0.4,3.5,2.2,3.6,4.3c0.1,2.1-1.3,3.9-3.3,4.5c-7.5,2.1-15.6,2.9-23.9,2.2   c9.7,21.2,30.8,35.1,54.4,35.5c1.9,0,3.6,1.3,4.2,3.1c0.6,1.8,0,3.8-1.5,5C172.6,351.3,144.6,361.3,114.9,361.9z"/></g></svg>