<?xml version="1.0" ?><svg id="Layer_1" style="enable-background:new 0 0 512 512;" version="1.1" viewBox="0 0 512 512" xml:space="preserve" xmlns="http://www.w3.org/2000/svg" xmlns:xlink="http://www.w3.org/1999/xlink"><style type="text/css">
	.st0{opacity:0.33;}
	.st1{fill:#96D7FF;}
	.st2{fill:#FFFFFF;}
	.st3{fill:#FF99B1;}
	.st4{fill:#2866AE;}
	.st5{fill:#EEF6FF;}
	.st6{fill:#E06E8C;}
	.st7{fill:#FFD7E2;}
</style><g class="st0"><path class="st1" d="M504.7,194.6c-7.3-49.7-44.8-89.6-94.1-100c-17-3.6-32.4-12.8-43.6-26.2   C330.9,25.8,273.9,7.1,219.6,20C165.3,33,123,75.4,110,129.8c-5.9,23.7-21.7,43.6-43.5,54.7C9.8,213.9-18.5,290.3,33.1,362   c6.8,8.5,15.5,15.3,25.4,19.6c18.2,9.1,32.5,24.6,40,43.5c13.1,32,40,56.3,73.1,66.1c33.1,9.8,69,4.1,97.4-15.6   c19.4-13.6,43.7-17.8,66.6-11.7c38.8,10.6,80.3,0.2,109.7-27.4c29.3-27.5,42.3-68.3,34.3-107.7c-3.7-19.4-0.1-39.6,10-56.5   C503.3,248.9,508.7,221.5,504.7,194.6L504.7,194.6z" id="Shape"/><g><path class="st2" d="M460.2,278.9c-2.1-0.9-4.6-0.4-6.2,1.2c-1,1.1-1.6,2.5-1.6,4c0,0.7,0.1,1.5,0.4,2.1c0.3,0.8,0.7,1.3,1.2,1.9    c0.5,0.5,1.2,0.9,1.9,1.2c0.7,0.3,1.4,0.5,2.1,0.5l0,0c1.5,0,3-0.6,4-1.6c0.5-0.5,0.8-1.2,1.2-1.8c0.3-0.7,0.4-1.4,0.4-2.1    C463.7,281.8,462.3,279.7,460.2,278.9z"/><path class="st2" d="M446.7,301.1h-33.9c-3.1,0-5.7,2.5-5.7,5.7c0,3.1,2.5,5.6,5.7,5.6h33.9c3.1,0,5.7-2.6,5.7-5.6    C452.4,303.6,449.9,301.1,446.7,301.1z"/><path class="st2" d="M395.8,289.8h39.6c3.1,0,5.7-2.5,5.7-5.6s-2.5-5.7-5.7-5.7h-39.6c-3.1,0-5.6,2.6-5.6,5.7    C390.2,287.2,392.7,289.8,395.8,289.8z"/><path class="st2" d="M395.8,306.7c0-3.1-2.6-5.7-5.6-5.7h-11.3c-3.1,0-5.7,2.5-5.7,5.7c0,3.1,2.5,5.6,5.7,5.6h11.3    C393.3,312.4,395.8,309.8,395.8,306.7z"/><path class="st2" d="M435.4,323.7h-45.3c-3.1,0-5.7,2.5-5.7,5.7c0,3.1,2.5,5.6,5.7,5.6h45.3c3.1,0,5.7-2.6,5.7-5.6    C441.1,326.2,438.6,323.7,435.4,323.7z"/></g><g><path class="st2" d="M94,272.7c-0.6,0.3-1.2,0.7-1.7,1.2c-0.6,0.5-1,1.1-1.2,1.8c-0.6,1.3-0.6,2.8,0,4.1c0.3,0.6,0.7,1.3,1.2,1.7    c1,1.1,2.3,1.7,3.8,1.7v0.1c0.7,0,1.4-0.2,2.1-0.5c0.6-0.3,1.3-0.7,1.7-1.2c0.5-0.5,0.9-1,1.2-1.8c0.2-0.7,0.4-1.3,0.4-2.1    c0-1.4-0.6-2.8-1.6-3.9C98.4,272.4,96,271.9,94,272.7z"/><path class="st2" d="M101.6,250.5h-11c-3,0-5.5,2.4-5.5,5.5c0,3,2.5,5.4,5.4,5.4h11l0,0c3,0,5.4-2.5,5.4-5.4    C107,252.9,104.6,250.5,101.6,250.5z"/><path class="st2" d="M117.9,228.6H63.3c-3,0-5.5,2.5-5.5,5.5s2.4,5.4,5.5,5.4h54.6c3,0,5.5-2.4,5.5-5.4    C123.4,231.1,120.9,228.6,117.9,228.6z"/><path class="st2" d="M46.9,261.4h21.8c3,0,5.5-2.5,5.5-5.4c0-3-2.4-5.5-5.5-5.5H46.9c-3,0-5.4,2.4-5.4,5.5    C41.5,258.9,44,261.4,46.9,261.4z"/><path class="st2" d="M74.3,272.3H30.6c-3,0-5.5,2.4-5.5,5.5c0,3,2.4,5.5,5.5,5.5h43.7c3,0,5.4-2.4,5.4-5.5    C79.7,274.7,77.2,272.3,74.3,272.3z"/></g></g><g><path class="st3" d="M421.4,256.2c0,0.5-0.1,54.8-6.8,80.5c-3.5,13-13.8,23.3-26.7,26.8c-25.7,6.8-130.7,6.8-131.8,6.8   s-105.7-0.1-131.7-7.1c-13-3.5-23.3-13.8-26.8-26.7c-6.8-25.4-6.8-80-6.8-80.5s0.1-54.8,6.8-80.5c3.5-12.9,14-23.5,26.7-27   c25.7-6.8,130.7-6.8,131.8-6.8s106,0.1,131.7,7.1c13,3.5,23.3,13.8,26.8,26.8l0,0C421.6,201.1,421.4,255.7,421.4,256.2z"/><path class="st4" d="M423.2,173.1c-4.3-16.1-17-28.8-33.1-33.1c-26.9-7.3-129.7-7.4-134.1-7.4c-4.4,0-107.2,0.1-134.1,7.2   c-15.8,4.3-28.8,17.4-33.1,33.4c-7.1,26.8-7.1,80.6-7.1,82.8c0,2.3,0.1,56.3,7.1,82.9c4.3,16.1,17,28.8,33.1,33.1   c27.1,7.3,129.7,7.4,134.1,7.4c4.4,0,107.2-0.1,134.1-7.1c16.1-4.3,28.8-17,33.1-33.1c7.1-26.8,7.1-80.6,7.1-82.8   C430.4,254,430.6,199.9,423.2,173.1z M421.4,256.2c0,0.5-0.1,54.8-6.8,80.5c-3.5,13-13.8,23.3-26.7,26.8   c-25.7,6.8-130.7,6.8-131.8,6.8c-1.1,0-105.7-0.1-131.7-7.1c-13-3.5-23.3-13.8-26.8-26.7c-6.8-25.4-6.8-80-6.8-80.5   s0.1-54.8,6.8-80.5c3.5-12.9,14-23.5,26.7-27c25.7-6.8,130.7-6.8,131.8-6.8s106,0.1,131.7,7.1c13,3.5,23.3,13.8,26.8,26.8   C421.6,201.1,421.4,255.7,421.4,256.2z"/><polygon class="st5" points="216.3,212.8 291.2,255.9 216.3,299.1  "/><path class="st4" d="M207.3,197.2v117.4l102-58.6L207.3,197.2z M216.3,212.8l74.9,43.1l-74.9,43.2L216.3,212.8L216.3,212.8z"/><path class="st6" d="M421.4,256.2c0-0.1,0-0.7,0-1.7c-7.1,24.6-33.2,80.9-127.4,115.4c33.1-0.6,78.2-2.2,93.9-6.4   c12.9-3.5,23.2-13.8,26.7-26.8C421.3,311,421.4,256.7,421.4,256.2z"/><path class="st7" d="M256.1,141.7c-1.1,0-106.1,0-131.8,6.8c-12.7,3.5-23.2,14.1-26.7,27c-5.2,20.1-6.4,57.8-6.7,73.4   C105.9,226.8,159,158.9,256.1,141.7z"/></g></svg>